<?xml version="1.0" encoding="UTF-8" standalone="no"?>
<!DOCTYPE svg PUBLIC "-//W3C//DTD SVG 1.1//EN" "http://www.w3.org/Graphics/SVG/1.1/DTD/svg11.dtd">
<svg class="railroad-diagram" width="587" height="132" viewBox="0 0 587 132" id="expr_add" xmlns="http://www.w3.org/2000/svg" xmlns:xlink="http://www.w3.org/1999/xlink"><g transform="translate(.5 .5)"><g><path d="M20 37v20m0 -10h20"></path></g><g><path d="M40 47h0"></path><path d="M547 47h0"></path><path d="M40 47h20"></path><g><path d="M60 47h0"></path><g><path d="M60 47h10"></path><path d="M517 47h10"></path><g class="non-terminal "><path d="M70 47h0"></path><path d="M166.5 47h0"></path><rect x="70" y="36" width="96.5" height="22" rx="10" ry="10"></rect><text x="118.25" y="51">expr_mult</text></g><path d="M166.5 47h10"></path><g><path d="M176.5 47h0"></path><path d="M517 47h0"></path><path d="M176.5 47a10 10 0 0 0 10 -10v-7a10 10 0 0 1 10 -10"></path><g><path d="M196.5 20h300.5"></path></g><path d="M497 20a10 10 0 0 1 10 10v7a10 10 0 0 0 10 10"></path><path d="M176.5 47h20"></path><g><path d="M196.5 47h0"></path><path d="M497 47h0"></path><path d="M196.5 47h10"></path><g><path d="M206.5 47h0"></path><path d="M487 47h0"></path><path d="M206.5 47h20"></path><g><path d="M226.5 47h0"></path><g><path d="M226.5 47h10"></path><path d="M457 47h10"></path><g><path d="M236.5 47h0"></path><path d="M359 47h0"></path><path d="M236.5 47h20"></path><g><path d="M256.5 47h4.25"></path><g><path d="M260.75 47h10"></path><path d="M324.75 47h10"></path><g class="terminal "><path d="M270.75 47h0"></path><path d="M324.75 47h0"></path><rect x="270.75" y="36" width="54" height="22"></rect><text x="297.75" y="51">Plus</text></g></g><path d="M334.75 47h4.25"></path></g><path d="M339 47h20"></path><path d="M236.5 47a10 10 0 0 1 10 10v18a10 10 0 0 0 10 10"></path><g><path d="M256.5 85h0"></path><g><path d="M256.5 85h10"></path><path d="M329 85h10"></path><g class="terminal "><path d="M266.5 85h0"></path><path d="M329 85h0"></path><rect x="266.5" y="74" width="62.5" height="22"></rect><text x="297.75" y="89">Minus</text></g></g><path d="M339 85h0"></path></g><path d="M339 85a10 10 0 0 0 10 -10v-18a10 10 0 0 1 10 -10"></path></g><path d="M359 47h10"></path><g class="non-terminal "><path d="M369 47h0"></path><path d="M457 47h0"></path><rect x="369" y="36" width="88" height="22" rx="10" ry="10"></rect><text x="413" y="51">expr_add</text></g></g><path d="M467 47h0"></path></g><path d="M467 47h20"></path></g><path d="M487 47h10"></path><path d="M206.5 47a10 10 0 0 0 -10 10v45a10 10 0 0 0 10 10"></path><g><path d="M206.5 112h280.5"></path></g><path d="M487 112a10 10 0 0 0 10 -10v-45a10 10 0 0 0 -10 -10"></path></g><path d="M497 47h20"></path></g></g><path d="M527 47h0"></path></g><path d="M527 47h20"></path></g><path d="M 547 47 h 20 m 0 -10 v 20"></path></g><defs><style type="text/css"><![CDATA[
svg.railroad-diagram path { stroke-width: 2; stroke: darkgray; fill: rgba(0, 0, 0, 0);}/* All text except comments. */svg.railroad-diagram text { font: bold 12px Hack, "Source Code Pro", monospace; text-anchor: middle; fill: #404040;}/* Comment text */svg.railroad-diagram text.comment { font: italic 10px Hack, "Source Code Pro", monospace; fill: #404040;}/* The terminal boxes. */svg.railroad-diagram g.terminal rect { stroke-width: 2; stroke: #404040; fill: rgba(200, 200, 200, 1);}svg.railroad-diagram g.non-terminal rect { /* The non-terminal boxes. */ stroke-width: 2; stroke: #404040; fill: rgba(255, 255, 255, 1);}/* Multiple choice text, not working atm. */svg.railroad-diagram text.diagram-text { font-size: 12px Hack, "Source Code Pro", monospace; fill: red;}/* Multiple choice text, not working atm. */svg.railroad-diagram path.diagram-text { stroke-width: 1; stroke: red; fill: red; cursor: help;}
 ]]>
</style></defs></svg>